<mxfile host="app.diagrams.net" modified="2022-05-11T03:06:04.313Z" agent="5.0 (Macintosh; Intel Mac OS X 10_15_7) AppleWebKit/537.36 (KHTML, like Gecko) Chrome/101.0.4951.54 Safari/537.36" etag="qWViNbe08dWF4Y9utXBA" version="18.0.2" type="github">
  <diagram id="AkEbU5Lf4pVV4BZRs5vu" name="Page-1">
    <mxGraphModel dx="946" dy="613" grid="1" gridSize="10" guides="1" tooltips="1" connect="1" arrows="1" fold="1" page="1" pageScale="1" pageWidth="827" pageHeight="1169" math="0" shadow="0">
      <root>
        <mxCell id="0" />
        <mxCell id="1" parent="0" />
        <mxCell id="nK6vygtbl7YxW8PINwqs-4" style="edgeStyle=orthogonalEdgeStyle;rounded=0;orthogonalLoop=1;jettySize=auto;html=1;exitX=0.5;exitY=1;exitDx=0;exitDy=0;entryX=0.5;entryY=0;entryDx=0;entryDy=0;" edge="1" parent="1" source="nK6vygtbl7YxW8PINwqs-1" target="nK6vygtbl7YxW8PINwqs-2">
          <mxGeometry relative="1" as="geometry" />
        </mxCell>
        <mxCell id="nK6vygtbl7YxW8PINwqs-1" value="开始" style="ellipse;whiteSpace=wrap;html=1;" vertex="1" parent="1">
          <mxGeometry x="354" y="100" width="106" height="60" as="geometry" />
        </mxCell>
        <mxCell id="nK6vygtbl7YxW8PINwqs-5" style="edgeStyle=orthogonalEdgeStyle;rounded=0;orthogonalLoop=1;jettySize=auto;html=1;exitX=0.5;exitY=1;exitDx=0;exitDy=0;entryX=0.5;entryY=0;entryDx=0;entryDy=0;" edge="1" parent="1" source="nK6vygtbl7YxW8PINwqs-2" target="nK6vygtbl7YxW8PINwqs-3">
          <mxGeometry relative="1" as="geometry" />
        </mxCell>
        <mxCell id="nK6vygtbl7YxW8PINwqs-2" value="动态图CI默认模式切换&lt;br&gt;CE模型正确性保证" style="rounded=0;whiteSpace=wrap;html=1;" vertex="1" parent="1">
          <mxGeometry x="330.5" y="190" width="153" height="50" as="geometry" />
        </mxCell>
        <mxCell id="nK6vygtbl7YxW8PINwqs-15" style="edgeStyle=orthogonalEdgeStyle;rounded=0;orthogonalLoop=1;jettySize=auto;html=1;exitX=0;exitY=0.5;exitDx=0;exitDy=0;fontColor=#FF0000;" edge="1" parent="1" source="nK6vygtbl7YxW8PINwqs-3" target="nK6vygtbl7YxW8PINwqs-8">
          <mxGeometry relative="1" as="geometry" />
        </mxCell>
        <mxCell id="nK6vygtbl7YxW8PINwqs-16" style="edgeStyle=orthogonalEdgeStyle;rounded=0;orthogonalLoop=1;jettySize=auto;html=1;exitX=1;exitY=0.5;exitDx=0;exitDy=0;fontColor=#FF0000;" edge="1" parent="1" source="nK6vygtbl7YxW8PINwqs-3" target="nK6vygtbl7YxW8PINwqs-6">
          <mxGeometry relative="1" as="geometry" />
        </mxCell>
        <mxCell id="nK6vygtbl7YxW8PINwqs-17" style="edgeStyle=orthogonalEdgeStyle;rounded=0;orthogonalLoop=1;jettySize=auto;html=1;exitX=1;exitY=0.5;exitDx=0;exitDy=0;fontColor=#FF0000;" edge="1" parent="1" source="nK6vygtbl7YxW8PINwqs-3" target="nK6vygtbl7YxW8PINwqs-7">
          <mxGeometry relative="1" as="geometry" />
        </mxCell>
        <mxCell id="nK6vygtbl7YxW8PINwqs-3" value="是否小版本发布新动态图" style="rhombus;whiteSpace=wrap;html=1;" vertex="1" parent="1">
          <mxGeometry x="307" y="260" width="200" height="80" as="geometry" />
        </mxCell>
        <mxCell id="nK6vygtbl7YxW8PINwqs-6" value="CE模型性能不下降" style="rounded=0;whiteSpace=wrap;html=1;" vertex="1" parent="1">
          <mxGeometry x="530" y="400" width="153" height="50" as="geometry" />
        </mxCell>
        <mxCell id="nK6vygtbl7YxW8PINwqs-7" value="算子库重要机制补齐" style="rounded=0;whiteSpace=wrap;html=1;" vertex="1" parent="1">
          <mxGeometry x="710" y="400" width="153" height="50" as="geometry" />
        </mxCell>
        <mxCell id="nK6vygtbl7YxW8PINwqs-18" style="edgeStyle=orthogonalEdgeStyle;rounded=0;orthogonalLoop=1;jettySize=auto;html=1;exitX=0.5;exitY=1;exitDx=0;exitDy=0;entryX=0.5;entryY=0;entryDx=0;entryDy=0;fontColor=#FF0000;" edge="1" parent="1" source="nK6vygtbl7YxW8PINwqs-8" target="nK6vygtbl7YxW8PINwqs-11">
          <mxGeometry relative="1" as="geometry" />
        </mxCell>
        <mxCell id="nK6vygtbl7YxW8PINwqs-8" value="CE模型性能不下降" style="rounded=0;whiteSpace=wrap;html=1;" vertex="1" parent="1">
          <mxGeometry x="120" y="360" width="153" height="50" as="geometry" />
        </mxCell>
        <mxCell id="nK6vygtbl7YxW8PINwqs-19" style="edgeStyle=orthogonalEdgeStyle;rounded=0;orthogonalLoop=1;jettySize=auto;html=1;exitX=0.5;exitY=1;exitDx=0;exitDy=0;fontColor=#FF0000;" edge="1" parent="1" source="nK6vygtbl7YxW8PINwqs-11" target="nK6vygtbl7YxW8PINwqs-12">
          <mxGeometry relative="1" as="geometry" />
        </mxCell>
        <mxCell id="nK6vygtbl7YxW8PINwqs-11" value="5个重点模型性能&lt;br&gt;针对性分析优化" style="rounded=0;whiteSpace=wrap;html=1;" vertex="1" parent="1">
          <mxGeometry x="120" y="450" width="153" height="50" as="geometry" />
        </mxCell>
        <mxCell id="nK6vygtbl7YxW8PINwqs-20" style="edgeStyle=orthogonalEdgeStyle;rounded=0;orthogonalLoop=1;jettySize=auto;html=1;exitX=0.5;exitY=1;exitDx=0;exitDy=0;entryX=0.5;entryY=0;entryDx=0;entryDy=0;fontColor=#FF0000;" edge="1" parent="1" source="nK6vygtbl7YxW8PINwqs-12" target="nK6vygtbl7YxW8PINwqs-13">
          <mxGeometry relative="1" as="geometry" />
        </mxCell>
        <mxCell id="nK6vygtbl7YxW8PINwqs-12" value="小版本兼容补齐&lt;br&gt;&lt;font color=&quot;#ff0000&quot;&gt;（做不到完全对齐）&lt;/font&gt;" style="rounded=0;whiteSpace=wrap;html=1;" vertex="1" parent="1">
          <mxGeometry x="120" y="535" width="153" height="50" as="geometry" />
        </mxCell>
        <mxCell id="nK6vygtbl7YxW8PINwqs-21" style="edgeStyle=orthogonalEdgeStyle;rounded=0;orthogonalLoop=1;jettySize=auto;html=1;exitX=0.5;exitY=1;exitDx=0;exitDy=0;entryX=0.5;entryY=0;entryDx=0;entryDy=0;fontColor=#FF0000;" edge="1" parent="1" source="nK6vygtbl7YxW8PINwqs-13" target="nK6vygtbl7YxW8PINwqs-14">
          <mxGeometry relative="1" as="geometry" />
        </mxCell>
        <mxCell id="nK6vygtbl7YxW8PINwqs-13" value="小版本发布新动态图" style="rounded=0;whiteSpace=wrap;html=1;" vertex="1" parent="1">
          <mxGeometry x="120" y="620" width="153" height="50" as="geometry" />
        </mxCell>
        <mxCell id="nK6vygtbl7YxW8PINwqs-23" style="edgeStyle=orthogonalEdgeStyle;rounded=0;orthogonalLoop=1;jettySize=auto;html=1;exitX=0.5;exitY=1;exitDx=0;exitDy=0;entryX=0.5;entryY=0;entryDx=0;entryDy=0;fontColor=#FF0000;" edge="1" parent="1" source="nK6vygtbl7YxW8PINwqs-14" target="nK6vygtbl7YxW8PINwqs-22">
          <mxGeometry relative="1" as="geometry" />
        </mxCell>
        <mxCell id="nK6vygtbl7YxW8PINwqs-14" value="有无外部&lt;br&gt;或线上兼容问题？" style="rhombus;whiteSpace=wrap;html=1;" vertex="1" parent="1">
          <mxGeometry x="119.5" y="710" width="153.5" height="70" as="geometry" />
        </mxCell>
        <mxCell id="nK6vygtbl7YxW8PINwqs-22" value="紧急投入人力加trick&lt;br&gt;or 建议用户切换回旧动态图" style="rounded=0;whiteSpace=wrap;html=1;" vertex="1" parent="1">
          <mxGeometry x="106.25" y="820" width="180" height="50" as="geometry" />
        </mxCell>
        <mxCell id="nK6vygtbl7YxW8PINwqs-24" value="开始投入人力补齐算子库机制" style="rounded=0;whiteSpace=wrap;html=1;" vertex="1" parent="1">
          <mxGeometry x="106.25" y="920" width="180" height="50" as="geometry" />
        </mxCell>
        <mxCell id="nK6vygtbl7YxW8PINwqs-25" value="算子整体排查&lt;br&gt;必要算子迁移及新动态图适配" style="rounded=0;whiteSpace=wrap;html=1;" vertex="1" parent="1">
          <mxGeometry x="106.25" y="1010" width="180" height="50" as="geometry" />
        </mxCell>
      </root>
    </mxGraphModel>
  </diagram>
</mxfile>
